# xmcd
#
# Track frame offsets:
#	150
#	20744
#	36238
#	52960
#	69110
#	88360
#	106569
#	120272
#	137265
#	154373
#	173662
#
# Disc length: 2501 seconds
#
# Revision: 1
# Processed by: cddbd v1.5.2PL0 Copyright (c) Steve Scherf et al.
# Submitted via: audiograbber 1.83.01
#
DISCID=8109c30b
DTITLE=John Arthur Martinez - Purgatory Road
DYEAR=2009
DGENRE=Country
TTITLE0=Utopia
TTITLE1=Purgatory Road
TTITLE2=You Can't Outdrink The Truth
TTITLE3=Thunder and Lightning
TTITLE4=Que No Puede Ver
TTITLE5=Closer To My Dream
TTITLE6=The Ride
TTITLE7=On The Run
TTITLE8=Cobalt Blue
TTITLE9=What Good Is I Love You
TTITLE10=When You Whisper In My Ear
EXTD=
EXTT0=
EXTT1=
EXTT2=
EXTT3=
EXTT4=
EXTT5=
EXTT6=
EXTT7=
EXTT8=
EXTT9=
EXTT10=
PLAYORDER=
